# MagicaVoxel @ Ephtracy

# material
mtllib TableForLudum_HD.mtl
usemtl palette

# normals
vn -1 0 0
vn 1 0 0
vn 0 0 1
vn 0 0 -1
vn 0 -1 0
vn 0 1 0

# texcoords
vt 0.279297 0.5
vt 0.302734 0.5
vt 0.310547 0.5

# verts
v -28 0 10
v -28 0 8
v -28 0 -8
v -28 0 -10
v -28 10 10
v -28 10 8
v -28 10 -8
v -28 10 -10
v -28 11 10
v -28 11 -10
v -27 9 8
v -27 9 -8
v -27 10 8
v -27 10 -8
v 26 0 10
v 26 0 8
v 26 0 -8
v 26 0 -10
v 26 9 9
v 26 9 8
v 26 9 -8
v 26 9 -9
v 26 10 10
v 26 10 9
v 26 10 -9
v 26 10 -10
v -26 0 10
v -26 0 8
v -26 0 -8
v -26 0 -10
v -26 9 9
v -26 9 8
v -26 9 -8
v -26 9 -9
v -26 10 10
v -26 10 9
v -26 10 -9
v -26 10 -10
v 27 9 8
v 27 9 -8
v 27 10 8
v 27 10 -8
v 28 0 10
v 28 0 8
v 28 0 -8
v 28 0 -10
v 28 10 10
v 28 10 8
v 28 10 -8
v 28 10 -10
v 28 11 10
v 28 11 -10
v -28 0 10
v -28 10 10
v -28 11 10
v -26 0 10
v -26 10 10
v 26 0 10
v 26 10 10
v 28 0 10
v 28 10 10
v 28 11 10
v -26 9 9
v -26 10 9
v 26 9 9
v 26 10 9
v -28 0 -8
v -28 10 -8
v -27 9 -8
v -27 10 -8
v -26 0 -8
v -26 9 -8
v 26 0 -8
v 26 9 -8
v 27 9 -8
v 27 10 -8
v 28 0 -8
v 28 10 -8
v -28 0 8
v -28 10 8
v -27 9 8
v -27 10 8
v -26 0 8
v -26 9 8
v 26 0 8
v 26 9 8
v 27 9 8
v 27 10 8
v 28 0 8
v 28 10 8
v -26 9 -9
v -26 10 -9
v 26 9 -9
v 26 10 -9
v -28 0 -10
v -28 10 -10
v -28 11 -10
v -26 0 -10
v -26 10 -10
v 26 0 -10
v 26 10 -10
v 28 0 -10
v 28 10 -10
v 28 11 -10
v -28 0 10
v -26 0 10
v 26 0 10
v 28 0 10
v -28 0 8
v -26 0 8
v 26 0 8
v 28 0 8
v -28 0 -8
v -26 0 -8
v 26 0 -8
v 28 0 -8
v -28 0 -10
v -26 0 -10
v 26 0 -10
v 28 0 -10
v -26 9 9
v 26 9 9
v -27 9 8
v -26 9 8
v 26 9 8
v 27 9 8
v -27 9 -8
v -26 9 -8
v 26 9 -8
v 27 9 -8
v -26 9 -9
v 26 9 -9
v -26 10 10
v 26 10 10
v -26 10 9
v 26 10 9
v -28 10 8
v -27 10 8
v 27 10 8
v 28 10 8
v -28 10 -8
v -27 10 -8
v 27 10 -8
v 28 10 -8
v -26 10 -9
v 26 10 -9
v -26 10 -10
v 26 10 -10
v -28 11 10
v 28 11 10
v -27 11 9
v 27 11 9
v -27 11 -9
v 27 11 -9
v -28 11 -10
v 28 11 -10

# faces
f 5/2/1 2/2/1 1/2/1
f 6/2/1 2/2/1 5/2/1
f 7/2/1 4/2/1 3/2/1
f 8/2/1 4/2/1 7/2/1
f 9/1/1 6/1/1 5/1/1
f 9/1/1 7/1/1 6/1/1
f 9/1/1 8/1/1 7/1/1
f 10/1/1 8/1/1 9/1/1
f 13/2/1 12/2/1 11/2/1
f 14/2/1 12/2/1 13/2/1
f 19/2/1 16/2/1 15/2/1
f 20/2/1 16/2/1 19/2/1
f 21/2/1 18/2/1 17/2/1
f 22/2/1 18/2/1 21/2/1
f 23/2/1 19/2/1 15/2/1
f 24/2/1 19/2/1 23/2/1
f 25/2/1 18/2/1 22/2/1
f 26/2/1 18/2/1 25/2/1
f 27/2/2 28/2/2 31/2/2
f 31/2/2 28/2/2 32/2/2
f 29/2/2 30/2/2 33/2/2
f 33/2/2 30/2/2 34/2/2
f 27/2/2 31/2/2 35/2/2
f 35/2/2 31/2/2 36/2/2
f 34/2/2 30/2/2 37/2/2
f 37/2/2 30/2/2 38/2/2
f 39/2/2 40/2/2 41/2/2
f 41/2/2 40/2/2 42/2/2
f 43/2/2 44/2/2 47/2/2
f 47/2/2 44/2/2 48/2/2
f 45/2/2 46/2/2 49/2/2
f 49/2/2 46/2/2 50/2/2
f 47/1/2 48/1/2 51/1/2
f 48/1/2 49/1/2 51/1/2
f 49/1/2 50/1/2 51/1/2
f 51/1/2 50/1/2 52/1/2
f 56/2/3 54/2/3 53/2/3
f 57/1/3 55/1/3 54/1/3
f 57/2/3 54/2/3 56/2/3
f 59/1/3 55/1/3 57/1/3
f 60/2/3 59/2/3 58/2/3
f 61/1/3 55/1/3 59/1/3
f 61/2/3 59/2/3 60/2/3
f 62/1/3 55/1/3 61/1/3
f 65/2/3 64/2/3 63/2/3
f 66/2/3 64/2/3 65/2/3
f 69/2/3 68/2/3 67/2/3
f 70/2/3 68/2/3 69/2/3
f 71/2/3 69/2/3 67/2/3
f 72/2/3 69/2/3 71/2/3
f 75/2/3 74/2/3 73/2/3
f 77/2/3 75/2/3 73/2/3
f 77/2/3 76/2/3 75/2/3
f 78/2/3 76/2/3 77/2/3
f 79/2/4 80/2/4 81/2/4
f 81/2/4 80/2/4 82/2/4
f 79/2/4 81/2/4 83/2/4
f 83/2/4 81/2/4 84/2/4
f 85/2/4 86/2/4 87/2/4
f 85/2/4 87/2/4 89/2/4
f 87/2/4 88/2/4 89/2/4
f 89/2/4 88/2/4 90/2/4
f 91/2/4 92/2/4 93/2/4
f 93/2/4 92/2/4 94/2/4
f 95/2/4 96/2/4 98/2/4
f 96/1/4 97/1/4 99/1/4
f 98/2/4 96/2/4 99/2/4
f 99/1/4 97/1/4 101/1/4
f 100/2/4 101/2/4 102/2/4
f 101/1/4 97/1/4 103/1/4
f 102/2/4 101/2/4 103/2/4
f 103/1/4 97/1/4 104/1/4
f 109/2/5 106/2/5 105/2/5
f 110/2/5 106/2/5 109/2/5
f 111/2/5 108/2/5 107/2/5
f 112/2/5 108/2/5 111/2/5
f 117/2/5 114/2/5 113/2/5
f 118/2/5 114/2/5 117/2/5
f 119/2/5 116/2/5 115/2/5
f 120/2/5 116/2/5 119/2/5
f 124/2/5 122/2/5 121/2/5
f 125/2/5 122/2/5 124/2/5
f 127/2/5 124/2/5 123/2/5
f 127/2/5 126/2/5 125/2/5
f 127/2/5 125/2/5 124/2/5
f 128/2/5 126/2/5 127/2/5
f 129/2/5 126/2/5 128/2/5
f 130/2/5 126/2/5 129/2/5
f 131/2/5 129/2/5 128/2/5
f 132/2/5 129/2/5 131/2/5
f 135/1/5 134/1/5 133/1/5
f 136/1/5 134/1/5 135/1/5
f 141/1/5 138/1/5 137/1/5
f 142/1/5 138/1/5 141/1/5
f 143/1/5 140/1/5 139/1/5
f 144/1/5 140/1/5 143/1/5
f 147/1/5 146/1/5 145/1/5
f 148/1/5 146/1/5 147/1/5
f 149/1/6 150/1/6 151/1/6
f 151/1/6 150/1/6 152/1/6
f 149/1/6 151/1/6 153/1/6
f 151/3/6 152/3/6 153/3/6
f 152/1/6 150/1/6 154/1/6
f 153/3/6 152/3/6 154/3/6
f 149/1/6 153/1/6 155/1/6
f 153/1/6 154/1/6 155/1/6
f 154/1/6 150/1/6 156/1/6
f 155/1/6 154/1/6 156/1/6
